# xmcd
#
# Track frame offsets:
#	150
#	25110
#	43056
#	63034
#	84585
#	111436
#	138776
#	158270
#	169813
#	196850
#	214173
#	240539
#	264292
#	282860
#
# Disc length: 4035 seconds
#
# Revision: 0
# Processed by: cddbd v1.5.2PL0 Copyright (c) Steve Scherf et al.
# Submitted via: EZCDAudioConverter 1.3.4.1
#
DISCID=b20fc10e
DTITLE=Eddie Roberts and The Fire Eaters - Burn!
DYEAR=2011
DGENRE=
TTITLE0=Gutterball
TTITLE1=Lope Song
TTITLE2=Lonely For You Baby
TTITLE3=Workout
TTITLE4=Eazy Rider
TTITLE5=Cigar Eddie
TTITLE6=The Skunk
TTITLE7=Booga Lou
TTITLE8=Take Some Time For Yourself
TTITLE9=Latona
TTITLE10=Biskit
TTITLE11=I Believe In Miracles
TTITLE12=Eazy Rider [Chip Wickham Remix]
TTITLE13=The Skunk [Chip Wickham Remix]
EXTD=
EXTT0=
EXTT1=
EXTT2=
EXTT3=
EXTT4=
EXTT5=
EXTT6=
EXTT7=
EXTT8=
EXTT9=
EXTT10=
EXTT11=
EXTT12=
EXTT13=
PLAYORDER=
